<svg xmlns="http://www.w3.org/2000/svg" viewBox="0 0 24 24"><g fill="none"><path fill="#FFF" d="M21.034 7.592a2.25 2.25 0 0 0 .386-2.256 2.33 2.33 0 0 0-1.804-1.456 2.37 2.37 0 0 0-2.19.801l-.573.68.004.005A8.87 8.87 0 0 0 10.799 3C5.94 3 2 6.856 2 11.612c0 4.755 3.94 8.612 8.8 8.612 4.858 0 8.799-3.857 8.799-8.612 0-.697-.086-1.39-.257-2.067l.025.04z"/><path fill="#33A544" d="M16.384 12.015c-.16 2.56-2.142 4.663-4.756 5.048-2.615.386-5.153-1.051-6.09-3.448S5.518 8.511 7.74 7.12s5.144-1.09 7.013.724q.276.268.511.573l1.076-1.272a8 8 0 0 0-.413-.439c-2.841-2.754-7.448-2.754-10.29 0a6.9 6.9 0 0 0 0 9.975c2.27 2.202 5.761 2.7 8.59 1.225 2.828-1.474 4.324-4.572 3.681-7.622z"/><path fill="#3A3A3A" d="M11.524 14.81h-.01c-1.224 0-2.016-.873-2.144-1.01l-1.971-2.065a.77.77 0 0 1 .025-1.088.78.78 0 0 1 1.09.015l1.995 2.04s.434.44 1.025.434c.472-.003.97-.283 1.48-.828l5.682-6.737a.783.783 0 0 1 1.087-.102.744.744 0 0 1 .104 1.063l-5.721 6.86c-.821.886-1.71 1.419-2.642 1.419Z"/></g></svg>