<?xml version="1.0" encoding="utf-8"?>
<!-- Generator: Adobe Illustrator 24.2.1, SVG Export Plug-In . SVG Version: 6.00 Build 0)  -->
<svg version="1.1" id="MPA_Globe" xmlns="http://www.w3.org/2000/svg" xmlns:xlink="http://www.w3.org/1999/xlink" x="0px" y="0px"
	 viewBox="0 0 576 242.6900024" style="enable-background:new 0 0 576 242.6900024;" xml:space="preserve">
<g id="Globe">
	<g id="Globe_1_">
		<path id="Rings" d="M288,0.0000012L288,0.0000012c-161.4999847,0-288,53.2999992-288,121.340004
			s126.5,121.3499985,288,121.3499985l0,0c161.4900513,0,288-53.3000031,288-121.3499985S449.5200195,0.0000012,288,0.0000012z
			 M560.6800537,114.0000076h-57.1600342c-3.1300049-30.4500046-25.75-58.5400047-64.5200195-79.730011
			c-1.5899658-0.8699989-3.2000122-1.7099991-4.8200073-2.5499992C505,49.670002,554.4400024,79.9400024,560.6799927,114.0200043
			L560.6800537,114.0000076z M488.8200684,114.0000076h-79.7000732
			c-2.289978-37.5959396-21.9037476-71.9985046-53.0899658-93.1200104
			c73.4899902,14.0600014,127.2699585,50.1400032,132.789978,93.1399994L488.8200684,114.0000076z M141.8200531,31.720005
			c-1.6300049,0.8400002-3.2400055,1.6800003-4.8200073,2.5499992
			c-38.7700043,21.1899986-61.4000015,49.2799988-64.5299988,79.730011H15.3100052
			c6.2099991-34.0600128,55.6800003-64.3300171,126.4800034-82.2600098L141.8200531,31.720005z M219.9600067,20.8800011
			c-31.1809082,21.1204758-50.7907562,55.5190086-53.0800018,93.1100006H87.1700058
			C92.7000046,71.0200043,146.5200043,34.9400024,219.9600067,20.8800011z M15.3100052,128.6600037h57.1299973
			c3.1299973,30.4499969,25.7600021,58.5400085,64.5299988,79.730011c1.5800018,0.8699951,3.1900024,1.7100067,4.8200073,2.5500031
			C70.9900055,193.0100098,21.5200043,162.7400055,15.3100052,128.6600037z M87.1700058,128.6600037h79.7099991
			c2.2892303,37.5909882,21.8990936,71.9895172,53.0800018,93.1100006
			C146.5200043,207.7400055,92.7000046,171.6600037,87.1700058,128.6600037z M288,228.0500031L288,228.0500031
			c-58.9342957,0-106.7099915-47.7756958-106.7099915-106.7099991S229.0657043,14.6300011,288,14.6300011l0,0
			c58.9343262,0,106.710022,47.7756958,106.710022,106.7100067S346.9343262,228.0500031,288,228.0500031z M409.1199951,128.6600037
			h79.7000122c-5.5200195,43-59.2999878,79.0800018-132.789978,93.1100006
			C387.213562,200.6506042,406.8269653,166.2523499,409.1199951,128.6600037z M434.210022,210.9400024
			c1.6199951-0.8399963,3.2299805-1.6799927,4.8200073-2.5500031
			c38.7699585-21.1900024,61.3900146-49.2799988,64.5199585-79.7299957h57.1300049
			C554.4400024,162.7400055,505,193.0100098,434.210022,210.9400024z"/>
		<g id="Film_Canister_Interior">
			<path id="Film_Canister_Interior_9_" d="M244.6500092,104.0200043L244.6500092,104.0200043
				c14.3593903,0,26.0000153-11.6405945,26.0000153-26s-11.640625-26.0000038-26.0000153-26.0000038
				c-14.3594055,0-26,11.6405945-26,26.0000038S230.2906036,104.0200043,244.6500092,104.0200043z"/>
			<path id="Film_Canister_Interior_8_" d="M270.6400146,164.6500092c0-14.3594055-11.640625-26-26.0000153-26l0,0
				c-14.3594055,0-26,11.6405945-26,26s11.6405945,26,26,26
				C258.9993896,190.6500092,270.6400146,179.0094147,270.6400146,164.6500092z"/>
			<path id="Film_Canister_Interior_7_" d="M305.3499756,78.0300064c0,14.3594055,11.640625,26,26,26
				c14.359436,0,26-11.6405945,26-26s-11.640564-26.0000038-26-26.0000038l0,0
				C316.9906006,52.0300026,305.3499756,63.6705971,305.3499756,78.0300064z"/>
			
				<ellipse id="Film_Canister_Interior_6_" transform="matrix(0.7071068 -0.7071068 0.7071068 0.7071068 -19.3767128 282.5187378)" cx="331.3419189" cy="164.6491241" rx="25.9899902" ry="25.9900055"/>
			<path id="Film_Canister_Interior_5_" d="M276.9400024,110.2800064
				c-6.1072998,6.1082687-6.1065674,16.0109634,0.001709,22.1182938c6.1082764,6.1073456,16.0109863,6.1065826,22.1182861-0.0016937
				c6.1066895-6.107605,6.1066895-16.0089951,0-22.1166c-6.1072998-6.1082687-16.0100098-6.109024-22.1182861-0.0016937
				C276.9411621,110.2788773,276.9406128,110.2794418,276.9400024,110.2800064z"/>
			<path id="Film_Canister_Interior_4_" d="M202.9600067,90.5400085c-7.1798706,19.8953857-7.1798706,41.6746216,0,61.5700073
				c5.0620728-16.7906036,19.6914215-28.9140778,37.1300049-30.7700043
				C222.648941,119.4666061,208.0236511,107.3346634,202.9600067,90.5400085z"/>
			<path id="Film_Canister_Interior_3_" d="M378.4199829,121.340004
				c0.0083618-10.4905014-1.8087769-20.9024506-5.3699951-30.7699966
				c-5.0551147,16.7952271-19.6881714,28.9217911-37.1300049,30.7700043
				c17.4362183,1.8797607,32.055481,14.009964,37.1199951,30.8000031
				C376.6110229,142.264389,378.4316406,131.8414459,378.4199829,121.340004z"/>
			<path id="Film_Canister_Interior_2_" d="M288,73.8200073c1.7415161-17.5979156,13.9332886-32.4041519,30.8699951-37.4900055
				c-19.947937-7.2132187-41.7920532-7.2132187-61.7399902,0C274.0635986,41.420578,286.2532959,56.2242699,288,73.8200073z"/>
			<path id="Film_Canister_Interior_1_" d="M288,168.9500122c-1.7637939,17.5635071-13.9367676,32.3337555-30.8399658,37.4199982
				c19.9411011,7.1933441,41.7688599,7.1933441,61.7099609,0C301.9597778,201.2868195,289.7762451,186.5181885,288,168.9500122z"/>
		</g>
	</g>
</g>
</svg>
